<svg width="24" height="24" viewBox="0 0 24 24" fill="none" xmlns="http://www.w3.org/2000/svg">
<path opacity="0.3" d="M20 3.99997H4V17.17L5.17 16H20V3.99997ZM18 14H6V12H18V14ZM18 11H6V8.99997H18V11ZM18 7.99997H6V5.99997H18V7.99997Z" fill="#637381"/>
<path d="M20 18C21.1 18 22 17.1 22 16V4.00003C22 2.90003 21.1 2.00003 20 2.00003H4C2.9 2.00003 2.01 2.90003 2.01 4.00003L2 22L6 18H20ZM4 17.17V4.00003H20V16H5.17L4 17.17ZM6 12H18V14H6V12ZM6 9.00003H18V11H6V9.00003ZM6 6.00003H18V8.00003H6V6.00003Z" fill="#637381"/>
</svg>
